<?xml version="1.0" encoding="UTF-8"?>
<!DOCTYPE svg PUBLIC "-//W3C//DTD SVG 1.1//EN" "http://www.w3.org/Graphics/SVG/1.1/DTD/svg11.dtd">
<svg xmlns="http://www.w3.org/2000/svg" width="100%" height="100%">
    <svg width="800" height="500" viewBox="0 0 800 500" xmlns="http://www.w3.org/2000/svg">
        <style>
            .bar { fill: slateblue; }
            .label { font: 12px sans-serif; text-anchor: middle; }
            .axis { font: 12px sans-serif; }
        </style>
        <g transform="translate(60, 20)">
            <!-- Y Axis -->
            <line x1="0" y1="0" x2="0" y2="420" stroke="black"/>
            <!-- X Axis -->
            <line x1="0" y1="420" x2="680" y2="420" stroke="black"/>
            
            <!-- Bars -->
            <g>
                <rect class="bar" x="0" y="391" width="50" height="29"/>
                <rect class="bar" x="68" y="130" width="50" height="290"/>
                <rect class="bar" x="136" y="198" width="50" height="222"/>
                <rect class="bar" x="204" y="397" width="50" height="23"/>
                <rect class="bar" x="272" y="413" width="50" height="7"/>
                <rect class="bar" x="340" y="381" width="50" height="39"/>
                <rect class="bar" x="408" y="407" width="50" height="13"/>
                <rect class="bar" x="476" y="397" width="50" height="23"/>
                <rect class="bar" x="544" y="417" width="50" height="3"/>
                <rect class="bar" x="612" y="0" width="50" height="420"/>
            </g>
            
            <!-- Labels Above Bars -->
            <g fill="black">
                <text class="label" x="25" y="388">7</text>
                <text class="label" x="93" y="127">40</text>
                <text class="label" x="161" y="195">26</text>
                <text class="label" x="229" y="394">6</text>
                <text class="label" x="297" y="410">3</text>
                <text class="label" x="365" y="378">9</text>
                <text class="label" x="433" y="404">4</text>
                <text class="label" x="501" y="394">6</text>
                <text class="label" x="569" y="414">2</text>
                <text class="label" x="637" y="-3">136</text>
            </g>
            
            <!-- X Axis Labels -->
            <g transform="translate(25, 440)" class="axis">
                <text transform="translate(0,0) rotate(-45)">attack</text>
                <text transform="translate(68,0) rotate(-45)">DNA</text>
                <text transform="translate(136,0) rotate(-45)">crime</text>
                <text transform="translate(204,0) rotate(-45)">k*ll</text>
                <text transform="translate(272,0) rotate(-45)">r*pe</text>
                <text transform="translate(340,0) rotate(-45)">sex</text>
                <text transform="translate(408,0) rotate(-45)">knife</text>
                <text transform="translate(476,0) rotate(-45)">shame</text>
                <text transform="translate(544,0) rotate(-45)">cold case</text>
                <text transform="translate(612,0) rotate(-45)">love</text>
            </g>
            
            <!-- Y Axis Labels -->
            <g class="axis">
                <text x="-10" y="420" text-anchor="end">0</text>
                <text x="-10" y="315" text-anchor="end">30</text>
                <text x="-10" y="210" text-anchor="end">60</text>
                <text x="-10" y="105" text-anchor="end">90</text>
                <text x="-10" y="0" text-anchor="end">120</text>
            </g>
            
            <!-- Title -->
            <text x="240" y="-5" font-size="16" font-weight="bold">Word Frequency from AntConc Analysis</text>
        </g>
    </svg>
</svg>